<svg xmlns="http://www.w3.org/2000/svg" width="1200" height="720" viewBox="0 0 1200 720" role="img" aria-labelledby="title desc"><title id="title">PetBalance architecture</title><desc id="desc">React, Electron and Android clients connect to FastAPI services and shelter operations backed by SQLite and PostgreSQL.</desc><defs><style>.bg{fill:#f7f5ef}.card{fill:#fff;stroke:#d9d4c8;stroke-width:2}.accent{fill:#edf4fb;stroke:#2f5f93;stroke-width:2}.title{font:700 28px Arial,sans-serif;fill:#1f2933}.label{font:700 20px Arial,sans-serif;fill:#24496f}.text{font:16px Arial,sans-serif;fill:#495463}.line{stroke:#7895b3;stroke-width:3;fill:none;marker-end:url(#arrow)}</style><marker id="arrow" viewBox="0 0 10 10" refX="9" refY="5" markerWidth="7" markerHeight="7" orient="auto-start-reverse"><path d="M0 0L10 5L0 10Z" fill="#7895b3"/></marker></defs><rect class="bg" width="1200" height="720" rx="24"/><text class="title" x="60" y="64">PetBalance 서비스 아키텍처</text><rect class="card" x="60" y="110" width="270" height="210" rx="18"/><text class="label" x="90" y="150">클라이언트</text><text class="text" x="90" y="190">React + Vite Web</text><text class="text" x="90" y="225">Electron Desktop</text><text class="text" x="90" y="260">Capacitor Android</text><rect class="accent" x="440" y="95" width="320" height="245" rx="18"/><text class="label" x="470" y="140">FastAPI 서비스</text><text class="text" x="470" y="180">인증 · 제품 · 식단 API</text><text class="text" x="470" y="215">영양 분석 · 기여도 계산</text><text class="text" x="470" y="250">추천 · 가격 · OCR</text><text class="text" x="470" y="285">저장 · 복원 · 사용자 분리</text><rect class="card" x="870" y="110" width="270" height="210" rx="18"/><text class="label" x="900" y="150">개인 데이터</text><text class="text" x="900" y="190">반려동물 프로필</text><text class="text" x="900" y="225">제품 · 급여량</text><text class="text" x="900" y="260">SQLite / PostgreSQL</text><path class="line" d="M330 215H430"/><path class="line" d="M760 215H860"/><rect class="accent" x="250" y="445" width="350" height="190" rx="18"/><text class="label" x="280" y="490">보호소 운영</text><text class="text" x="280" y="530">로스터 · 급여 기록 · 재고 · 예산</text><text class="text" x="280" y="565">Next.js Route Handlers</text><text class="text" x="280" y="600">revision 기반 충돌 감지</text><rect class="card" x="700" y="445" width="250" height="190" rx="18"/><text class="label" x="730" y="490">운영 저장소</text><text class="text" x="730" y="535">Neon PostgreSQL</text><text class="text" x="730" y="570">동시 수정 이력</text><path class="line" d="M600 540H690"/><path class="line" d="M600 340V430"/></svg>
